<svg width="110" height="110" viewBox="0 0 110 110" fill="none" xmlns="http://www.w3.org/2000/svg">
<mask id="mask0_453_767" style="mask-type:luminance" maskUnits="userSpaceOnUse" x="0" y="0" width="110" height="110">
<path d="M109.451 0.866699H0.318359V110H109.451V0.866699Z" fill="white"/>
</mask>
<g mask="url(#mask0_453_767)">
<mask id="mask1_453_767" style="mask-type:luminance" maskUnits="userSpaceOnUse" x="0" y="5" width="109" height="97">
<path d="M108.346 5.41357H0.318359V101.739H108.346V5.41357Z" fill="white"/>
</mask>
<g mask="url(#mask1_453_767)">
<path fill-rule="evenodd" clip-rule="evenodd" d="M46.3659 10.2626L1.63973 87.7251C0.831816 89.1239 0.4064 90.7108 0.40625 92.3262C0.406101 93.9416 0.831224 95.5286 1.63888 96.9276C2.44653 98.3266 3.60826 99.4883 5.00726 100.296C6.40626 101.104 7.99323 101.529 9.60863 101.529H99.0538C100.669 101.529 102.256 101.104 103.655 100.296C105.054 99.4883 106.216 98.3266 107.024 96.9276C107.831 95.5286 108.256 93.9416 108.256 92.3262C108.256 90.7108 107.831 89.1239 107.023 87.7251L62.3013 10.2626C61.4938 8.86404 60.3324 7.70264 58.9338 6.89517C57.5351 6.0877 55.9486 5.6626 54.3336 5.6626C52.7187 5.6626 51.1321 6.0877 49.7335 6.89517C48.3349 7.70264 47.1735 8.86404 46.3659 10.2626ZM54.9188 34.1549H53.7521C50.8796 34.1549 48.5511 36.4834 48.5511 39.3558V64.2156C48.5511 67.088 50.8796 69.4166 53.7521 69.4166H54.9188C57.7912 69.4166 60.1197 67.088 60.1197 64.2156V39.3558C60.1197 36.4834 57.7912 34.1549 54.9188 34.1549ZM60.1195 83.3488C60.1195 86.5434 57.5298 89.1331 54.3352 89.1331C51.1406 89.1331 48.5509 86.5434 48.5509 83.3488C48.5509 80.1542 51.1406 77.5644 54.3352 77.5644C57.5298 77.5644 60.1195 80.1542 60.1195 83.3488Z" fill="#6DEB94"/>
</g>
</g>
</svg>
