<svg width="24" height="24" viewBox="0 0 24 24" fill="none" xmlns="http://www.w3.org/2000/svg">
<path d="M19.6024 12.6348C19.0438 12.5498 18.5477 12.9327 18.4676 13.4786C18.2664 14.8497 17.6336 16.1007 16.6375 17.0968C14.1023 19.632 9.9803 19.63 7.4461 17.0968C4.9124 14.5626 4.9124 10.4391 7.4461 7.9054C8.3992 6.9528 9.6024 6.3317 10.949 6.1056C11.5281 5.9957 12.1507 5.9767 12.7967 6.0499C13.6837 6.152 14.5093 6.4463 15.2627 6.8784L13.9608 7.1007C13.4169 7.194 13.0506 7.7106 13.1444 8.255C13.2274 8.7423 13.6503 9.0865 14.1288 9.0865C14.1845 9.0865 14.2411 9.0821 14.2987 9.0723L17.7889 8.4756C18.0496 8.4307 18.283 8.2842 18.4364 8.0674C18.5897 7.8511 18.6503 7.5825 18.6053 7.3208L18.0076 3.8311C17.9158 3.2872 17.406 2.9229 16.8533 3.0142C16.3094 3.1075 15.9431 3.6246 16.0369 4.169L16.1942 5.0875C15.2263 4.5445 14.1586 4.1932 13.0242 4.0626C12.1746 3.9659 11.3504 3.9928 10.596 4.1373C8.8592 4.4283 7.2811 5.2423 6.032 6.4913C2.7185 9.8048 2.7185 15.1964 6.032 18.5108C7.6887 20.168 9.8655 20.9962 12.0418 20.9962C14.2186 20.9962 16.3943 20.1681 18.0516 18.5108C19.3534 17.209 20.1815 15.5694 20.4461 13.7696C20.5263 13.2227 20.1483 12.7148 19.6024 12.6348Z" fill="white"/>
</svg>
