<svg width="81" height="15" viewBox="0 0 81 15" fill="none" xmlns="http://www.w3.org/2000/svg">
<g clip-path="url(#clip0_361_696)">
<path d="M17.7438 2.81844H14.9457L11.2887 14.6387H8.20996L11.8193 2.81844H8.91881L9.75594 0.0424805H18.6125L17.7438 2.81844Z" fill="white"/>
<path d="M19.8774 0.0424805H28.857L24.0998 14.6387H15.2861L19.8774 0.0424805ZM19.236 11.8726H21.9303L24.8464 2.8175H22.119L19.236 11.8726Z" fill="white"/>
<path d="M28.4993 14.6387H25.4408L29.5505 2.10158L32.4779 0.0424805H38.8556L35.1652 10.9341H29.7283L28.4993 14.6387ZM33.0268 8.13786L34.8091 2.81844H32.4213L30.6555 8.13786H33.0268Z" fill="white"/>
<path d="M45.0562 14.6387H37.0316L38.588 10.096H41.6648L41.0484 11.8726H42.9528L43.7664 9.55084L40.1349 5.88681L42.1393 0.0424805H50.1215L48.5882 4.3814H45.775L46.3188 2.82505H44.2908L43.6305 4.73275L47.2677 8.38688L45.0562 14.6387Z" fill="white"/>
<path d="M52.5254 6.03679H55.1797L57.3525 0.0424805H60.4689L55.1203 14.6387H52.0618L54.1766 8.80426H51.5322L49.4372 14.6387H46.3788L51.5614 0.0424805H54.6779L52.5254 6.03679Z" fill="white"/>
<path d="M61.796 0.0424805H70.7757L65.2346 14.6387H56.4224L61.796 0.0424805ZM60.5226 11.8726H63.2175L66.6188 2.8175H63.8924L60.5226 11.8726Z" fill="white"/>
<path d="M79.9101 2.81844H77.1101L72.5104 14.6387H69.4316L73.9837 2.81844H71.0833L72.1439 0.0424805H81L79.9101 2.81844Z" fill="white"/>
<path d="M4.93929 0H1.5139C1.11254 0.000499203 0.727768 0.16016 0.443964 0.443964C0.16016 0.727768 0.000499203 1.11254 0 1.5139L0 13.1111C0.000124205 13.5128 0.159589 13.898 0.443407 14.1823C0.727224 14.4665 1.11221 14.6266 1.5139 14.6273H4.93646C5.33857 14.6268 5.7241 14.467 6.00857 14.1828C6.29304 13.8986 6.45326 13.5132 6.45414 13.1111V1.5139C6.45339 1.11246 6.29352 0.727683 6.00956 0.443906C5.72561 0.160129 5.34073 0.000498613 4.93929 0Z" fill="white"/>
<path d="M4.08936 2.68168L4.09314 2.72884C4.19737 2.78968 4.25019 2.8392 4.35583 2.90711C4.63503 3.08255 4.97931 3.39524 4.93545 4.47195C5.01374 4.70776 5.04864 5.16854 5.1208 5.31662C5.26653 5.60478 5.36368 5.79249 5.40377 6.06509C5.40377 6.06509 5.44575 6.48955 5.50045 6.51926C5.78909 6.58434 5.70561 6.61358 5.74806 6.66074C5.79286 6.71875 5.95934 6.71592 5.95934 6.87109C6.01469 6.94525 6.0596 7.02666 6.09281 7.11303V1.51394C6.09256 1.20776 5.97105 0.914149 5.75486 0.697339C5.53867 0.480529 5.2454 0.358178 4.93923 0.357056H3.83233C4.00872 0.420253 4.11059 0.494769 4.16907 0.613146C4.31055 0.625408 4.48175 0.945639 4.21623 1.41867C4.33366 1.49696 4.24217 1.61345 4.15775 1.74881C4.13322 1.7922 4.10634 1.86954 4.02805 1.86436C3.9276 2.07564 3.80639 2.28033 3.71443 2.29353C3.6866 2.32749 3.66726 2.41851 3.70829 2.46143C3.84318 2.5218 4.0073 2.60292 4.08842 2.68168" fill="#C8102E"/>
<path d="M6.09524 7.87611C6.02977 8.04078 5.92303 8.18583 5.78529 8.29732C5.64755 8.40881 5.48345 8.48298 5.30875 8.51271C5.13406 8.54244 4.95465 8.52673 4.78779 8.46708C4.62092 8.40742 4.47221 8.30584 4.35596 8.1721C4.2397 8.03836 4.15981 7.87696 4.12397 7.70341C4.08813 7.52987 4.09754 7.35002 4.1513 7.18117C4.20506 7.01231 4.30136 6.86013 4.43093 6.73925C4.56051 6.61837 4.71901 6.53287 4.89119 6.49096C4.77234 6.19336 4.52097 5.71089 4.44645 5.55243C4.37194 5.39396 4.20593 4.41441 4.16914 4.2201C4.16065 4.17765 3.72393 4.47383 3.72299 4.49175C3.69752 4.51675 3.39285 5.30577 3.38248 5.34869C3.37783 5.39255 3.37563 5.43664 3.37587 5.48074C3.37587 5.48074 3.52443 5.49914 3.61168 5.75853C3.69893 6.01792 3.95455 6.96258 3.95455 6.96258C3.93217 6.98726 3.90771 7.00998 3.88145 7.03049C4.20781 8.12182 4.09368 8.59156 4.23988 8.91132C4.42382 9.36266 4.47569 9.30323 4.63133 9.68242C4.74405 9.95832 4.87044 11.0449 4.9143 11.093C5.09069 11.3161 5.18501 11.4906 5.18501 11.6165C5.18501 11.7425 5.03598 12.1174 5.09069 12.3353C5.12323 12.4636 5.14068 12.7508 5.20058 12.8069C5.20058 12.8069 5.25528 12.9149 5.2284 12.9625C5.22038 12.979 5.20482 13.0045 5.21189 13.0239C5.30905 13.3667 5.6222 13.9511 5.11474 14.2571H5.12559C5.39767 14.2139 5.64519 14.0744 5.82314 13.8641C6.00109 13.6538 6.09764 13.3866 6.09524 13.1111V7.87611Z" fill="#C8102E"/>
<path d="M4.79159 12.8894C4.60577 12.7234 4.72981 12.6536 4.72273 12.5876C4.60011 12.0811 4.19735 11.7745 4.4058 11.6076C4.3544 11.4402 4.2497 11.2303 4.25347 11.2303C3.62668 10.8704 3.09234 10.287 3.00179 10.1993C2.8919 10.08 2.70466 9.95974 2.67165 9.86305C2.52073 9.7244 1.7817 8.67598 1.60956 8.28973L1.30961 8.24728C1.17331 7.68982 0.717724 7.22292 0.706405 6.66357C0.702161 6.45229 0.800729 5.99953 0.839402 5.90898C0.878075 5.81843 1.05022 5.66704 1.05022 5.66704V5.51801C0.396079 5.5364 0.584255 5.47084 0.471066 5.21523C0.392306 5.03931 0.4489 5.00064 0.477197 4.87849C0.565391 4.5177 0.856852 3.96166 0.977587 3.70887C1.01437 3.58106 1.14077 3.27356 1.14077 3.27356C1.62842 2.28033 1.81047 2.35343 2.38962 2.29731L2.41839 2.25627C2.99896 2.23128 2.90369 2.18742 2.98434 1.62855C2.89944 1.66486 2.87445 1.4531 2.87445 1.4531C2.82729 1.13523 2.96264 1.19513 3.02631 1.189C3.03999 0.665968 3.09328 0.501372 3.47058 0.357056H1.51476C1.3627 0.356994 1.21211 0.3869 1.07161 0.445064C0.931106 0.503229 0.803443 0.588511 0.695916 0.696038C0.58839 0.803565 0.503107 0.931228 0.444942 1.07173C0.386778 1.21223 0.356872 1.36282 0.356934 1.51489V13.1111C0.35681 13.2632 0.38667 13.4139 0.444807 13.5544C0.502943 13.695 0.588216 13.8227 0.695749 13.9303C0.803282 14.0378 0.930966 14.1232 1.0715 14.1814C1.21203 14.2396 1.36266 14.2695 1.51476 14.2694H4.93921C4.54682 14.0581 4.77838 13.6549 4.79159 12.8894Z" fill="#1D428A"/>
<path d="M2.16237 13.5412V11.4416H2.56985C2.80566 11.4416 2.95092 11.568 2.95092 11.8623V12.1735C2.95092 12.3645 2.89291 12.4617 2.80944 12.5089C2.89103 12.565 2.95092 12.6588 2.95092 12.8178V13.1239C2.95092 13.4115 2.7967 13.5412 2.56985 13.5412H2.16237ZM2.44204 12.6296V13.2767H2.54957C2.6439 13.2767 2.67172 13.2262 2.67172 13.1262V12.7706C2.67172 12.6678 2.63965 12.6291 2.54674 12.6291L2.44204 12.6296ZM2.44204 11.7062V12.3999H2.54674C2.64531 12.3999 2.67172 12.3645 2.67172 12.2499V11.8472C2.67172 11.75 2.64248 11.7057 2.54957 11.7057L2.44204 11.7062ZM3.60883 13.1149H3.35557L3.3202 13.5394H3.03723L3.29049 11.4397H3.69278L3.93755 13.5394H3.64373L3.60883 13.1149ZM3.48338 11.6769H3.46876C3.45131 11.9297 3.41641 12.3735 3.40462 12.515L3.37302 12.8753H3.59138L3.55931 12.5141C3.54752 12.3697 3.50696 11.9316 3.48338 11.676M1.33043 13.5412H1.08472V11.4416H1.47192L1.78319 13.1616C1.75725 12.7503 1.72188 12.2532 1.72188 11.8297V11.4416H1.96665V13.5412H1.61246L1.30119 11.859C1.32147 12.2471 1.33043 12.556 1.33043 12.8796V13.5412Z" fill="white"/>
</g>
<defs>
<clipPath id="clip0_361_696">
<rect width="81" height="14.6387" fill="white"/>
</clipPath>
</defs>
</svg>
