<svg width="176" height="31" viewBox="0 0 176 31" fill="none" xmlns="http://www.w3.org/2000/svg">
<path d="M10.8532 14.3296C9.7462 13.1734 9.06228 11.6087 9.06228 9.88158C9.06228 6.32619 13.6814 5.35498 15.4999 3.10001C17.3184 5.35498 21.9375 6.32619 21.9375 9.88158C21.9375 11.6087 21.2536 13.1734 20.1465 14.3296H10.8532Z" fill="white"/>
<path d="M23.4625 15.2596C23.0193 14.7967 22.7455 14.1703 22.7455 13.4789C22.7455 12.0555 24.5947 11.6667 25.3227 10.764C26.0507 11.6667 27.8999 12.0555 27.8999 13.4789C27.8999 14.1703 27.6261 14.7967 27.1829 15.2596H23.4625Z" fill="white"/>
<path d="M3.81699 15.2596C3.3738 14.7967 3.10001 14.1703 3.10001 13.4789C3.10001 12.0555 4.94918 11.6667 5.67721 10.764C6.40522 11.6667 8.25439 12.0555 8.25439 13.4789C8.25439 14.1703 7.9806 14.7967 7.53741 15.2596H3.81699Z" fill="white"/>
<path d="M8.2543 15.8796V16.8687H10.4881V15.2596H20.5117V16.8687H22.7455V15.8796H27.8999V27.9H19.0951V22.249C19.0951 20.2635 15.4999 18.6538 15.4999 18.6538C15.4999 18.6538 11.9047 20.2635 11.9047 22.249V27.9H3.0999V15.8796H8.2543ZM22.2462 24.0609H23.7126H25.1789V21.7561C25.1789 20.9462 23.7126 20.2897 23.7126 20.2897C23.7126 20.2897 22.2462 20.9462 22.2462 21.7561V24.0609ZM5.8209 24.0609H7.28725H8.7536V21.7561C8.7536 20.9462 7.28725 20.2897 7.28725 20.2897C7.28725 20.2897 5.8209 20.9462 5.8209 21.7561V24.0609Z" fill="white"/>
<path d="M38.722 23.5V8.926H40.696V23.5H38.722ZM40.066 17.095V15.289H47.668V17.095H40.066ZM40.066 10.732V8.926H48.025V10.732H40.066ZM50.2805 23.5V8.506H52.1705V23.5H50.2805ZM59.4928 23.71C58.5128 23.71 57.6308 23.479 56.8468 23.017C56.0628 22.555 55.4398 21.932 54.9778 21.148C54.5158 20.35 54.2848 19.461 54.2848 18.481C54.2848 17.515 54.5158 16.647 54.9778 15.877C55.4398 15.093 56.0628 14.47 56.8468 14.008C57.6308 13.546 58.5128 13.315 59.4928 13.315C60.4588 13.315 61.3338 13.546 62.1178 14.008C62.9158 14.456 63.5458 15.072 64.0078 15.856C64.4698 16.64 64.7008 17.515 64.7008 18.481C64.7008 19.461 64.4698 20.35 64.0078 21.148C63.5458 21.932 62.9158 22.555 62.1178 23.017C61.3338 23.479 60.4588 23.71 59.4928 23.71ZM59.4928 21.883C60.1228 21.883 60.6828 21.736 61.1728 21.442C61.6628 21.148 62.0478 20.749 62.3278 20.245C62.6078 19.727 62.7478 19.139 62.7478 18.481C62.7478 17.837 62.6008 17.263 62.3068 16.759C62.0268 16.255 61.6418 15.863 61.1518 15.583C60.6758 15.289 60.1228 15.142 59.4928 15.142C58.8628 15.142 58.3028 15.289 57.8128 15.583C57.3228 15.863 56.9378 16.255 56.6578 16.759C56.3778 17.263 56.2378 17.837 56.2378 18.481C56.2378 19.139 56.3778 19.727 56.6578 20.245C56.9378 20.749 57.3228 21.148 57.8128 21.442C58.3028 21.736 58.8628 21.883 59.4928 21.883ZM69.3992 23.5L65.4512 13.525H67.4252L70.2812 21.295H69.6512L72.4862 13.525H73.5782L76.4132 21.295H75.7832L78.6392 13.525H80.6132L76.6862 23.5H75.5732L72.6962 15.961H73.3892L70.4912 23.5H69.3992ZM83.9522 23.5V21.778H88.3622C89.2022 21.778 89.8602 21.533 90.3362 21.043C90.8122 20.539 91.0502 19.937 91.0502 19.237C91.0502 18.761 90.9452 18.334 90.7352 17.956C90.5252 17.564 90.2172 17.256 89.8112 17.032C89.4192 16.808 88.9572 16.696 88.4252 16.696H83.9522V14.974H88.1312C88.8312 14.974 89.3842 14.792 89.7902 14.428C90.2102 14.05 90.4202 13.511 90.4202 12.811C90.4202 12.111 90.2032 11.579 89.7692 11.215C89.3352 10.837 88.7612 10.648 88.0472 10.648H83.9522V8.926H88.0892C89.0412 8.926 89.8322 9.101 90.4622 9.451C91.1062 9.787 91.5892 10.235 91.9112 10.795C92.2472 11.355 92.4152 11.971 92.4152 12.643C92.4152 13.427 92.1982 14.113 91.7642 14.701C91.3442 15.289 90.7212 15.751 89.8952 16.087L90.0632 15.457C91.0012 15.793 91.7292 16.304 92.2472 16.99C92.7792 17.662 93.0452 18.46 93.0452 19.384C93.0452 20.154 92.8562 20.847 92.4782 21.463C92.1002 22.079 91.5542 22.576 90.8402 22.954C90.1402 23.318 89.2792 23.5 88.2572 23.5H83.9522ZM82.6292 23.5V8.926H84.6032V23.5H82.6292ZM99.9972 23.71C99.0032 23.71 98.1072 23.486 97.3092 23.038C96.5112 22.576 95.8812 21.953 95.4192 21.169C94.9572 20.385 94.7262 19.496 94.7262 18.502C94.7262 17.522 94.9502 16.64 95.3982 15.856C95.8602 15.072 96.4762 14.456 97.2462 14.008C98.0302 13.546 98.9052 13.315 99.8712 13.315C100.795 13.315 101.607 13.525 102.307 13.945C103.021 14.365 103.574 14.946 103.966 15.688C104.372 16.43 104.575 17.27 104.575 18.208C104.575 18.348 104.568 18.502 104.554 18.67C104.54 18.824 104.512 19.006 104.47 19.216H96.0492V17.641H103.462L102.769 18.25C102.769 17.578 102.65 17.011 102.412 16.549C102.174 16.073 101.838 15.709 101.404 15.457C100.97 15.191 100.445 15.058 99.8292 15.058C99.1852 15.058 98.6182 15.198 98.1282 15.478C97.6382 15.758 97.2602 16.15 96.9942 16.654C96.7282 17.158 96.5952 17.753 96.5952 18.439C96.5952 19.139 96.7352 19.755 97.0152 20.287C97.2952 20.805 97.6942 21.211 98.2122 21.505C98.7302 21.785 99.3252 21.925 99.9972 21.925C100.557 21.925 101.068 21.827 101.53 21.631C102.006 21.435 102.412 21.141 102.748 20.749L103.966 21.988C103.49 22.548 102.902 22.975 102.202 23.269C101.516 23.563 100.781 23.71 99.9972 23.71ZM107.861 23.5V9.346H109.751V23.5H107.861ZM105.404 15.247V13.525H112.208V15.247H105.404ZM115.719 17.83V16.108H119.688C120.234 16.108 120.717 15.996 121.137 15.772C121.571 15.548 121.907 15.233 122.145 14.827C122.397 14.421 122.523 13.938 122.523 13.378C122.523 12.818 122.397 12.335 122.145 11.929C121.907 11.523 121.571 11.208 121.137 10.984C120.717 10.76 120.234 10.648 119.688 10.648H115.719V8.926H119.814C120.71 8.926 121.508 9.108 122.208 9.472C122.922 9.836 123.482 10.354 123.888 11.026C124.308 11.684 124.518 12.468 124.518 13.378C124.518 14.274 124.308 15.058 123.888 15.73C123.482 16.388 122.922 16.906 122.208 17.284C121.508 17.648 120.71 17.83 119.814 17.83H115.719ZM114.396 23.5V8.926H116.37V23.5H114.396ZM130.463 23.71C129.553 23.71 128.727 23.486 127.985 23.038C127.243 22.576 126.655 21.953 126.221 21.169C125.801 20.385 125.591 19.503 125.591 18.523C125.591 17.543 125.801 16.661 126.221 15.877C126.655 15.093 127.236 14.47 127.964 14.008C128.706 13.546 129.539 13.315 130.463 13.315C131.219 13.315 131.891 13.476 132.479 13.798C133.081 14.106 133.564 14.54 133.928 15.1C134.292 15.646 134.495 16.283 134.537 17.011V20.014C134.495 20.728 134.292 21.365 133.928 21.925C133.578 22.485 133.102 22.926 132.5 23.248C131.912 23.556 131.233 23.71 130.463 23.71ZM130.778 21.925C131.716 21.925 132.472 21.61 133.046 20.98C133.62 20.336 133.907 19.517 133.907 18.523C133.907 17.837 133.774 17.242 133.508 16.738C133.256 16.22 132.892 15.821 132.416 15.541C131.94 15.247 131.387 15.1 130.757 15.1C130.127 15.1 129.567 15.247 129.077 15.541C128.601 15.835 128.223 16.241 127.943 16.759C127.677 17.263 127.544 17.844 127.544 18.502C127.544 19.174 127.677 19.769 127.943 20.287C128.223 20.791 128.608 21.19 129.098 21.484C129.588 21.778 130.148 21.925 130.778 21.925ZM133.781 23.5V20.812L134.138 18.376L133.781 15.961V13.525H135.692V23.5H133.781ZM138.444 23.5V8.506H140.334V23.5H138.444ZM147.341 23.71C146.431 23.71 145.605 23.486 144.863 23.038C144.121 22.576 143.533 21.953 143.099 21.169C142.679 20.385 142.469 19.503 142.469 18.523C142.469 17.543 142.679 16.661 143.099 15.877C143.533 15.093 144.114 14.47 144.842 14.008C145.584 13.546 146.417 13.315 147.341 13.315C148.097 13.315 148.769 13.476 149.357 13.798C149.959 14.106 150.442 14.54 150.806 15.1C151.17 15.646 151.373 16.283 151.415 17.011V20.014C151.373 20.728 151.17 21.365 150.806 21.925C150.456 22.485 149.98 22.926 149.378 23.248C148.79 23.556 148.111 23.71 147.341 23.71ZM147.656 21.925C148.594 21.925 149.35 21.61 149.924 20.98C150.498 20.336 150.785 19.517 150.785 18.523C150.785 17.837 150.652 17.242 150.386 16.738C150.134 16.22 149.77 15.821 149.294 15.541C148.818 15.247 148.265 15.1 147.635 15.1C147.005 15.1 146.445 15.247 145.955 15.541C145.479 15.835 145.101 16.241 144.821 16.759C144.555 17.263 144.422 17.844 144.422 18.502C144.422 19.174 144.555 19.769 144.821 20.287C145.101 20.791 145.486 21.19 145.976 21.484C146.466 21.778 147.026 21.925 147.656 21.925ZM150.659 23.5V20.812L151.016 18.376L150.659 15.961V13.525H152.57V23.5H150.659ZM159.879 23.71C158.899 23.71 158.01 23.479 157.212 23.017C156.428 22.555 155.805 21.932 155.343 21.148C154.895 20.35 154.671 19.468 154.671 18.502C154.671 17.522 154.895 16.64 155.343 15.856C155.805 15.072 156.428 14.456 157.212 14.008C158.01 13.546 158.899 13.315 159.879 13.315C160.649 13.315 161.363 13.462 162.021 13.756C162.679 14.036 163.246 14.449 163.722 14.995L162.462 16.255C162.154 15.891 161.776 15.618 161.328 15.436C160.894 15.24 160.411 15.142 159.879 15.142C159.249 15.142 158.689 15.289 158.199 15.583C157.709 15.863 157.324 16.255 157.044 16.759C156.764 17.263 156.624 17.844 156.624 18.502C156.624 19.16 156.764 19.741 157.044 20.245C157.324 20.749 157.709 21.148 158.199 21.442C158.689 21.736 159.249 21.883 159.879 21.883C160.411 21.883 160.894 21.792 161.328 21.61C161.776 21.414 162.161 21.134 162.483 20.77L163.722 22.03C163.26 22.562 162.693 22.975 162.021 23.269C161.363 23.563 160.649 23.71 159.879 23.71ZM170.011 23.71C169.017 23.71 168.121 23.486 167.323 23.038C166.525 22.576 165.895 21.953 165.433 21.169C164.971 20.385 164.74 19.496 164.74 18.502C164.74 17.522 164.964 16.64 165.412 15.856C165.874 15.072 166.49 14.456 167.26 14.008C168.044 13.546 168.919 13.315 169.885 13.315C170.809 13.315 171.621 13.525 172.321 13.945C173.035 14.365 173.588 14.946 173.98 15.688C174.386 16.43 174.589 17.27 174.589 18.208C174.589 18.348 174.582 18.502 174.568 18.67C174.554 18.824 174.526 19.006 174.484 19.216H166.063V17.641H173.476L172.783 18.25C172.783 17.578 172.664 17.011 172.426 16.549C172.188 16.073 171.852 15.709 171.418 15.457C170.984 15.191 170.459 15.058 169.843 15.058C169.199 15.058 168.632 15.198 168.142 15.478C167.652 15.758 167.274 16.15 167.008 16.654C166.742 17.158 166.609 17.753 166.609 18.439C166.609 19.139 166.749 19.755 167.029 20.287C167.309 20.805 167.708 21.211 168.226 21.505C168.744 21.785 169.339 21.925 170.011 21.925C170.571 21.925 171.082 21.827 171.544 21.631C172.02 21.435 172.426 21.141 172.762 20.749L173.98 21.988C173.504 22.548 172.916 22.975 172.216 23.269C171.53 23.563 170.795 23.71 170.011 23.71Z" fill="white"/>
</svg>
