<?xml version="1.0" encoding="UTF-8"?>
<svg id="Capa_1" data-name="Capa 1" xmlns="http://www.w3.org/2000/svg" viewBox="0 0 328.45 36.68">
  <g id="Group_11745" data-name="Group 11745">
    <g id="MotoGP_IGNITION" data-name="MotoGP IGNITION">
      <g id="Group_10804" data-name="Group 10804">
        <path id="Path_22883" data-name="Path 22883" d="m95.23,29.27l-2.03-15.31-3.84,12.58h-5.16l-3.72-12.43-1.96,15.16h-4.98l3.32-22.31c.15-1.03.87-1.55,2.18-1.55h2.14c.5-.03.99.09,1.42.35.37.29.64.7.76,1.16l3.54,13.65,3.69-13.65c.1-.46.36-.88.74-1.16.43-.26.93-.38,1.44-.35h2.14c1.3,0,2.03.52,2.18,1.55l3.25,22.31h-5.09Z" style="fill: #fff;"/>
        <path id="Path_22884" data-name="Path 22884" d="m103.83,27.73c-1.33-1.32-2.03-3.15-1.92-5.02v-5.46c-.12-1.88.58-3.72,1.92-5.05,1.53-1.27,3.48-1.9,5.46-1.77,1.98-.13,3.94.49,5.48,1.75,1.33,1.34,2.03,3.19,1.9,5.07v5.46c.12,1.87-.57,3.71-1.9,5.03-1.54,1.26-3.49,1.89-5.48,1.75-1.98.13-3.93-.5-5.46-1.77Zm7.3-2.77c.52-.77.74-1.7.63-2.62v-4.76c.11-.92-.11-1.85-.63-2.62-.49-.48-1.16-.74-1.84-.7-.69-.02-1.37.23-1.88.7-.49.78-.7,1.7-.59,2.62v4.76c-.09.91.11,1.83.59,2.62.51.48,1.19.72,1.88.66.68.07,1.36-.18,1.85-.66h0Z" style="fill: #fff;"/>
        <path id="Path_22885" data-name="Path 22885" d="m121.68,28.39c-.87-.98-1.3-2.27-1.18-3.58v-10.81h-2.84v-3.36h2.84v-4.36h4.87v4.35h3.87l-.74,3.36h-3.13v9.96c-.04.44.08.89.33,1.25.29.27.68.41,1.07.37h2.4l-.74,3.91h-2.88c-1.39.13-2.77-.26-3.88-1.1Z" style="fill: #fff;"/>
        <path id="Path_22886" data-name="Path 22886" d="m132.75,27.73c-1.33-1.32-2.03-3.15-1.92-5.02v-5.46c-.12-1.88.58-3.72,1.92-5.05,1.53-1.27,3.48-1.9,5.46-1.77,1.98-.13,3.94.49,5.48,1.75,1.33,1.34,2.03,3.19,1.9,5.07v5.46c.12,1.87-.57,3.71-1.9,5.03-1.54,1.26-3.49,1.89-5.48,1.75-1.98.13-3.93-.5-5.46-1.77Zm7.3-2.77c.52-.77.74-1.7.63-2.62v-4.76c.11-.92-.11-1.85-.63-2.62-.49-.48-1.16-.74-1.84-.7-.69-.02-1.37.23-1.88.7-.49.78-.7,1.7-.59,2.62v4.76c-.09.91.11,1.83.59,2.62.51.48,1.19.72,1.88.66.68.07,1.36-.18,1.85-.66h0Z" style="fill: #fff;"/>
        <path id="Path_22887" data-name="Path 22887" d="m165.13,16.84v4.57c0,2.66-.73,4.67-2.18,6.03s-3.58,2.05-6.38,2.05c-1.3.02-2.58-.18-3.82-.57-1.05-.33-2.02-.89-2.82-1.64-1.5-1.66-2.27-3.85-2.14-6.09v-7.71c0-3.17,1.02-5.45,3.06-6.82,1.71-1.06,3.71-1.58,5.72-1.48,2.78,0,4.87.67,6.27,2.01,1.4,1.34,2.1,3.35,2.1,6.03v.44h-5.12v-.33c.1-1.02-.17-2.04-.76-2.88-.67-.63-1.58-.94-2.49-.85-.51-.01-1.01.05-1.49.2-.41.14-.8.36-1.12.65-.36.31-.62.71-.76,1.16-.19.59-.29,1.21-.28,1.83v7.78c-.11,1.05.24,2.1.96,2.88.71.7,1.7,1.05,2.69.96.95.08,1.9-.24,2.6-.89.62-.8.92-1.8.83-2.8v-.41h-3.32l.74-4.13h7.71Z" style="fill: #fff;"/>
        <path id="Path_22888" data-name="Path 22888" d="m168.04,20.61c-.07-1.05.29-2.09,1.01-2.86.82-.7,1.89-1.05,2.97-.98h3.32c1.1.12,2.21-.16,3.13-.77.66-.79.97-1.82.85-2.84.05-.75-.11-1.5-.44-2.18-.3-.5-.78-.86-1.35-1.01-.8-.21-1.63-.3-2.45-.28h-1.95v3.98h-5.09V5.41h7.23c3.2,0,5.53.62,7.01,1.86,1.48,1.24,2.21,3.23,2.21,5.96.07,1.57-.25,3.13-.94,4.54-.66,1.16-1.72,2.04-2.99,2.47-1.75.58-3.6.84-5.44.77h-1.03c-.28-.02-.54.1-.72.31-.17.24-.25.53-.24.83v7.12h-5.09v-8.67Z" style="fill: #fff;"/>
        <path id="Path_22889" data-name="Path 22889" d="m189.55,6.63h-.85v2.66h-1.37v-2.66h-1.03v-1.22h3.43l-.18,1.22Zm4.98,2.66h-1.33l-.15-1.84h-.15l-.37,1.18h-.81l-.37-1.18h-.15l-.15,1.84h-1.33l.44-3.36c.01-.3.26-.53.55-.52.01,0,.02,0,.04,0h.48c.29-.04.56.15.63.44l.18.7h.15l.18-.7c.06-.29.34-.48.63-.44h.48c.3-.03.56.19.59.48,0,.01,0,.02,0,.04l.44,3.36Z" style="fill: #fff;"/>
        <path id="Path_22890" data-name="Path 22890" d="m205.63,5.41h5.09v23.86h-5.09V5.41Z" style="fill: #fff;"/>
        <path id="Path_22891" data-name="Path 22891" d="m230.97,16.84v4.57c0,2.66-.73,4.67-2.18,6.03-1.45,1.36-3.58,2.05-6.38,2.05-1.3.02-2.58-.18-3.82-.57-1.05-.33-2.02-.89-2.82-1.64-1.5-1.66-2.27-3.85-2.14-6.09v-7.71c0-3.17,1.02-5.45,3.06-6.82,1.71-1.06,3.71-1.58,5.72-1.48,2.78,0,4.87.67,6.27,2.01,1.4,1.34,2.1,3.35,2.1,6.03v.44h-5.13v-.33c.1-1.02-.17-2.04-.76-2.88-.67-.63-1.58-.94-2.49-.85-.51-.01-1.01.05-1.49.2-.41.14-.8.36-1.12.65-.36.31-.62.71-.76,1.16-.19.59-.29,1.21-.28,1.83v7.78c-.11,1.05.24,2.1.96,2.88,1.53,1.25,3.73,1.28,5.29.07.62-.8.92-1.8.83-2.8v-.41h-3.32l.74-4.13h7.71Z" style="fill: #fff;"/>
        <path id="Path_22892" data-name="Path 22892" d="m234.03,7.07c0-1.11.66-1.66,1.99-1.66h1.36c.49-.02.98.09,1.42.31.4.26.72.64.9,1.09l7.64,13.69V5.41h4.61v22.2c0,1.11-.63,1.66-1.88,1.66h-1.4c-.51.02-1.02-.09-1.48-.33-.41-.26-.74-.63-.96-1.07l-7.6-13.54v14.94h-4.61V7.07Z" style="fill: #fff;"/>
        <path id="Path_22893" data-name="Path 22893" d="m255.49,5.41h5.09v23.86h-5.09V5.41Z" style="fill: #fff;"/>
        <path id="Path_22894" data-name="Path 22894" d="m279.21,9.69h-5.39v19.59h-5.09V9.69h-6.05v-4.28h17.26l-.74,4.28Z" style="fill: #fff;"/>
        <path id="Path_22895" data-name="Path 22895" d="m282.02,5.41h5.09v23.86h-5.09V5.41Z" style="fill: #fff;"/>
        <path id="Path_22896" data-name="Path 22896" d="m292.49,27.5c-1.71-1.63-2.62-3.94-2.47-6.31v-7.71c-.03-1.27.19-2.54.65-3.73.43-1.06,1.11-2.01,1.97-2.77.75-.64,1.63-1.1,2.58-1.35,1.17-.32,2.37-.48,3.58-.46,2.19-.15,4.37.49,6.12,1.81,1.75,1.45,2.62,3.62,2.62,6.49v7.71c.03,1.28-.19,2.56-.65,3.76-.42,1.05-1.1,1.97-1.97,2.69-.76.63-1.65,1.09-2.6,1.36-1.14.33-2.33.5-3.52.48-2.83,0-4.93-.66-6.31-1.99Zm8.63-3.06c.44-.3.78-.73.96-1.24.23-.63.35-1.3.33-1.97v-7.78c.08-1.06-.26-2.11-.96-2.91-.72-.65-1.68-.99-2.66-.92-.54-.02-1.07.06-1.59.22-.43.16-.82.41-1.14.74-.68.8-1.01,1.83-.92,2.88v7.78c0,.61.08,1.21.26,1.79.13.46.38.88.74,1.2.33.29.72.51,1.14.65.49.14,1,.21,1.51.2.82.04,1.63-.18,2.32-.63h0Z" style="fill: #fff;"/>
        <path id="Path_22897" data-name="Path 22897" d="m310.53,7.07c0-1.11.66-1.66,1.99-1.66h1.36c.49-.02.98.09,1.42.31.4.26.72.64.9,1.09l7.64,13.69V5.41h4.61v22.2c0,1.11-.63,1.66-1.88,1.66h-1.4c-.51.02-1.02-.09-1.47-.33-.41-.26-.74-.63-.96-1.07l-7.6-13.54v14.94h-4.61V7.07Z" style="fill: #fff;"/>
      </g>
    </g>
    <g id="Group_9746" data-name="Group 9746">
      <g id="Group_1975" data-name="Group 1975">
        <g id="Group_2465" data-name="Group 2465">
          <g id="Group_1959" data-name="Group 1959">
            <g id="Group_1932" data-name="Group 1932">
              <g id="Group_1696" data-name="Group 1696">
                <g id="Group_1695" data-name="Group 1695">
                  <path id="Path_2768" data-name="Path 2768" d="m59.33,16.01h-.56l-.31,1.48h-.22l.31-1.48h-.56l.04-.19h1.35l-.05.19Z" style="fill: #fff;"/>
                  <path id="Path_2769" data-name="Path 2769" d="m59.56,15.83h.31l.22,1.43h0l.83-1.43h.31l-.35,1.67h-.21l.34-1.46h0l-.85,1.46h-.21l-.22-1.46h0l-.29,1.46h-.21l.35-1.67Z" style="fill: #fff;"/>
                </g>
              </g>
              <g id="Group_1698" data-name="Group 1698">
                <g id="Group_1697" data-name="Group 1697">
                  <path id="Path_2770" data-name="Path 2770" d="m5.99,2.91c.92-1.65,2.59-2.73,4.47-2.91h11.26l-7.54,14.26H0L5.99,2.91Z" style="fill: #fff; fill-rule: evenodd;"/>
                  <path id="Path_2771" data-name="Path 2771" d="m28.99,7.15c.65-1.16,1.83-1.93,3.15-2.05h7.7l-3.71,7.12c-.65,1.16-1.83,1.93-3.15,2.05h-7.7l3.71-7.12Z" style="fill: #fff; fill-rule: evenodd;"/>
                  <path id="Path_2772" data-name="Path 2772" d="m41.89,1.12c.34-.62.97-1.02,1.67-1.09h4.03l-2.16,4.03c-.34.62-.97,1.02-1.67,1.09h-4.03l2.16-4.03Z" style="fill: #fff; fill-rule: evenodd;"/>
                  <path id="Path_2773" data-name="Path 2773" d="m14.16,14.27h11.13l-5.95,11.1h-11.12l5.94-11.1Z" style="fill: #fff; fill-rule: evenodd;"/>
                  <path id="Path_2774" data-name="Path 2774" d="m19.35,25.36h7.8l-3.55,6.64c-.48.86-1.35,1.42-2.32,1.51h-6.29l4.37-8.15Z" style="fill: #fff; fill-rule: evenodd;"/>
                </g>
                <path id="Path_2775" data-name="Path 2775" d="m40.48,17.81l-2.14,4.02c-.14.26.04.45.3.48.23.02.45-.02.66-.11l-.86,1.62c-.24.08-.5.12-.75.13-1.27,0-1.86-.85-1.3-1.91l3.59-6.75c.25-.45.71-.75,1.22-.8h1.05l-.84,1.59h1.08l-.93,1.74h-1.08Zm-10.8.3l-.03.08-.88,1.66-1.66,3.11c-.16.27-.39.5-.66.64-.17.1-.37.16-.57.16h-1.08l2.08-3.92.92-1.74s.02-.05.03-.07c.09-.23-.02-.41-.26-.41-.31.03-.59.21-.74.48l-.92,1.74-1.66,3.12c-.25.46-.71.76-1.23.8h-1.08l3.01-5.66c.53-1.48,2.01-2.4,3.58-2.23h2.84c1.09,0,1.99.63,1.15,2.23l-2.58,4.85c-.25.46-.71.76-1.23.8h-1.08l2.08-3.92.92-1.74c.14-.27.04-.48-.23-.48-.31.03-.59.21-.74.48h0Zm22.26-.34l-.67,1.26h-1.82l.54-1.02c.14-.26.04-.48-.22-.48-.31.03-.58.21-.73.48l-1.83,3.43-.16.31c-.14.26-.04.48.22.48s.59-.17.87-.75l.25-.46h-.47l.73-1.37h2.28l-1.25,2.35-.02.03c-.72,1.15-1.96,1.87-3.32,1.92-1.27,0-1.84-.86-1.28-1.92l.31-.58,1.97-3.71c.72-1.15,1.96-1.87,3.31-1.92,1.27,0,1.84.86,1.27,1.92v.03Zm-10.19,3.98c-.14.26-.04.48.22.48.31-.03.58-.21.73-.48l1.98-3.72c.14-.26.04-.48-.22-.48-.31.03-.58.21-.73.48l-1.98,3.72Zm4.89-3.96l-2.24,4.2-.02.03c-.72,1.15-1.96,1.87-3.32,1.92-1.27,0-1.84-.86-1.27-1.92l2.28-4.27c.72-1.15,1.96-1.87,3.32-1.92,1.27,0,1.84.86,1.27,1.92l-.02.03Zm-13.48,3.96c-.14.26-.04.48.22.48.31-.03.58-.21.73-.48l1.99-3.72c.14-.26.04-.48-.22-.48-.31.03-.58.21-.73.48l-1.98,3.72Zm4.81-3.96l-2.24,4.2-.02.03c-.72,1.15-1.96,1.87-3.32,1.92-1.27,0-1.84-.86-1.28-1.92l2.28-4.27c.72-1.15,1.96-1.87,3.32-1.92,1.27,0,1.84.86,1.27,1.92l-.02.03Zm16.38.23l-.09.16-.8,1.5h.32c.41-.04.78-.28.98-.64l.55-1.02c.14-.26.04-.48-.22-.48-.31.03-.58.21-.73.48h0Zm-1.78,3.34l-.86,1.62c-.25.45-.71.75-1.22.8h-1.07l2.29-4.31.69-1.3c.56-1.48,2.01-2.42,3.59-2.34,1.58,0,1.79,1.05,1.1,2.34l-.05.09-.6,1.13-.04.08c-.73,1.17-2,1.89-3.38,1.94-.15,0-.31-.02-.46-.05h0Z" style="fill: #fff;"/>
              </g>
            </g>
          </g>
        </g>
      </g>
    </g>
  </g>
</svg>