<svg xmlns="http://www.w3.org/2000/svg" width="328.455" height="36.685" viewBox="0 0 328.455 36.685">
  <g id="Group_11745" data-name="Group 11745" transform="translate(-482 -15.504)">
    <g id="MotoGP_IGNITION" data-name="MotoGP IGNITION" transform="translate(555.546 20.692)" style="isolation: isolate">
      <g id="Group_10804" data-name="Group 10804" transform="translate(0 0)" style="isolation: isolate">
        <path id="Path_22883" data-name="Path 22883" d="M-507.209,3818.288l-2.029-15.307-3.836,12.578h-5.164l-3.725-12.43-1.955,15.16H-528.9l3.319-22.315q.222-1.549,2.176-1.549h2.139a2.448,2.448,0,0,1,1.42.35,2.165,2.165,0,0,1,.756,1.162l3.541,13.647,3.689-13.647a1.957,1.957,0,0,1,.738-1.162,2.538,2.538,0,0,1,1.438-.35h2.139q1.955,0,2.176,1.549l3.246,22.315Z" transform="translate(528.897 -3794.203)" fill="#fff"/>
        <path id="Path_22884" data-name="Path 22884" d="M-360.973,3841.081a6.486,6.486,0,0,1-1.918-5.016v-5.459a6.533,6.533,0,0,1,1.918-5.053,7.757,7.757,0,0,1,5.459-1.771,7.8,7.8,0,0,1,5.477,1.752,6.558,6.558,0,0,1,1.9,5.072v5.459a6.508,6.508,0,0,1-1.9,5.035,7.8,7.8,0,0,1-5.477,1.752A7.757,7.757,0,0,1-360.973,3841.081Zm7.3-2.766a3.85,3.85,0,0,0,.627-2.619v-4.758a3.85,3.85,0,0,0-.627-2.619,2.419,2.419,0,0,0-1.844-.7,2.7,2.7,0,0,0-1.881.7,4.029,4.029,0,0,0-.59,2.619v4.758a4.219,4.219,0,0,0,.59,2.619,2.47,2.47,0,0,0,1.881.664A2.278,2.278,0,0,0-353.67,3838.315Z" transform="translate(391.255 -3818.544)" fill="#fff"/>
        <path id="Path_22885" data-name="Path 22885" d="M-266.693,3821.7a4.712,4.712,0,0,1-1.18-3.578v-10.807h-2.84v-3.356h2.84V3799.6H-263v4.353h3.873l-.738,3.356H-263v9.959a1.87,1.87,0,0,0,.332,1.254,1.374,1.374,0,0,0,1.07.369h2.4l-.738,3.909h-2.877A5.565,5.565,0,0,1-266.693,3821.7Z" transform="translate(314.827 -3798.497)" fill="#fff"/>
        <path id="Path_22886" data-name="Path 22886" d="M-191.728,3841.081a6.486,6.486,0,0,1-1.918-5.016v-5.459a6.533,6.533,0,0,1,1.918-5.053,7.757,7.757,0,0,1,5.459-1.771,7.8,7.8,0,0,1,5.477,1.752,6.558,6.558,0,0,1,1.9,5.072v5.459a6.509,6.509,0,0,1-1.9,5.035,7.8,7.8,0,0,1-5.477,1.752A7.756,7.756,0,0,1-191.728,3841.081Zm7.3-2.766a3.849,3.849,0,0,0,.627-2.619v-4.758a3.849,3.849,0,0,0-.627-2.619,2.418,2.418,0,0,0-1.844-.7,2.7,2.7,0,0,0-1.881.7,4.028,4.028,0,0,0-.59,2.619v4.758a4.218,4.218,0,0,0,.59,2.619,2.469,2.469,0,0,0,1.881.664A2.278,2.278,0,0,0-184.425,3838.315Z" transform="translate(250.928 -3818.544)" fill="#fff"/>
        <path id="Path_22887" data-name="Path 22887" d="M-77.008,3804.783v4.573q0,3.984-2.176,6.031t-6.381,2.047a12.038,12.038,0,0,1-3.818-.572,7.315,7.315,0,0,1-2.822-1.641,8.31,8.31,0,0,1-2.139-6.086v-7.709q0-4.758,3.061-6.823a9.9,9.9,0,0,1,5.717-1.476q4.168,0,6.27,2.01t2.1,6.031v.443H-82.32v-.332a4.321,4.321,0,0,0-.756-2.877,3.191,3.191,0,0,0-2.49-.848,4.782,4.782,0,0,0-1.494.2,3.34,3.34,0,0,0-1.125.645,2.426,2.426,0,0,0-.756,1.162,5.537,5.537,0,0,0-.277,1.826v7.783a3.682,3.682,0,0,0,.959,2.877,3.418,3.418,0,0,0,2.693.959,3.411,3.411,0,0,0,2.6-.885,4,4,0,0,0,.83-2.8v-.406h-3.32l.738-4.131Z" transform="translate(168.593 -3793.128)" fill="#fff"/>
        <path id="Path_22888" data-name="Path 22888" d="M24.17,3809.62a3.789,3.789,0,0,1,1.014-2.859,4.117,4.117,0,0,1,2.969-.977h3.32a4.737,4.737,0,0,0,3.135-.774,3.768,3.768,0,0,0,.848-2.84,4.3,4.3,0,0,0-.443-2.176,2.282,2.282,0,0,0-1.346-1.014,8.671,8.671,0,0,0-2.453-.277H29.26v3.983H24.17v-8.262H31.4q4.794,0,7.008,1.863t2.213,5.957a9.36,9.36,0,0,1-.941,4.537,5.477,5.477,0,0,1-2.988,2.471,15.706,15.706,0,0,1-5.44.775H30.219a.85.85,0,0,0-.719.313,1.33,1.33,0,0,0-.24.83v7.119H24.17Z" transform="translate(70.328 -3794.203)" fill="#fff"/>
        <path id="Path_22889" data-name="Path 22889" d="M134.271,3795.641h-.848v2.656h-1.365v-2.656h-1.033v-1.217h3.43Zm4.98,2.656h-1.328l-.147-1.844h-.148l-.369,1.18h-.811l-.369-1.18h-.148l-.147,1.844h-1.328l.443-3.357a.537.537,0,0,1,.59-.516h.48a.568.568,0,0,1,.627.442l.184.7h.147l.185-.7a.568.568,0,0,1,.627-.442h.479a.537.537,0,0,1,.59.516Z" transform="translate(-18.269 -3794.203)" fill="#fff"/>
        <path id="Path_22890" data-name="Path 22890" d="M244.143,3794.424h5.09v23.864h-5.09Z" transform="translate(-112.06 -3794.203)" fill="#fff"/>
        <path id="Path_22891" data-name="Path 22891" d="M308.323,3804.783v4.573q0,3.984-2.176,6.031t-6.381,2.047a12.038,12.038,0,0,1-3.818-.572,7.315,7.315,0,0,1-2.822-1.641,8.31,8.31,0,0,1-2.139-6.086v-7.709q0-4.758,3.061-6.823a9.9,9.9,0,0,1,5.717-1.476q4.168,0,6.27,2.01t2.1,6.031v.443h-5.127v-.332a4.322,4.322,0,0,0-.756-2.877,3.192,3.192,0,0,0-2.49-.848,4.782,4.782,0,0,0-1.494.2,3.341,3.341,0,0,0-1.125.645,2.427,2.427,0,0,0-.756,1.162,5.536,5.536,0,0,0-.277,1.826v7.783a3.682,3.682,0,0,0,.959,2.877,4.261,4.261,0,0,0,5.293.074,4,4,0,0,0,.83-2.8v-.406h-3.32l.738-4.131Z" transform="translate(-150.9 -3793.128)" fill="#fff"/>
        <path id="Path_22892" data-name="Path 22892" d="M410.364,3796.084q0-1.66,1.992-1.66h1.365a2.8,2.8,0,0,1,1.42.313,2.4,2.4,0,0,1,.9,1.088l7.635,13.685v-15.086h4.611v22.2q0,1.66-1.881,1.66h-1.4a2.849,2.849,0,0,1-1.475-.332,2.74,2.74,0,0,1-.959-1.069l-7.6-13.537v14.938h-4.611Z" transform="translate(-249.88 -3794.203)" fill="#fff"/>
        <path id="Path_22893" data-name="Path 22893" d="M536,3794.424h5.09v23.864H536Z" transform="translate(-354.053 -3794.203)" fill="#fff"/>
        <path id="Path_22894" data-name="Path 22894" d="M594.623,3798.7h-5.385v19.586h-5.09V3798.7H578.1v-4.278h17.262Z" transform="translate(-388.955 -3794.203)" fill="#fff"/>
        <path id="Path_22895" data-name="Path 22895" d="M691.217,3794.424h5.09v23.864h-5.09Z" transform="translate(-482.746 -3794.203)" fill="#fff"/>
        <path id="Path_22896" data-name="Path 22896" d="M740.532,3815.443a8.027,8.027,0,0,1-2.471-6.307v-7.709a9.844,9.844,0,0,1,.646-3.726,7.4,7.4,0,0,1,1.973-2.766,6.6,6.6,0,0,1,2.582-1.346,12.831,12.831,0,0,1,3.578-.461,9.149,9.149,0,0,1,6.123,1.807q2.618,2.177,2.619,6.492v7.709a9.961,9.961,0,0,1-.646,3.762,6.786,6.786,0,0,1-1.973,2.692,7.145,7.145,0,0,1-2.6,1.365,12.037,12.037,0,0,1-3.523.48Q742.6,3817.435,740.532,3815.443Zm8.631-3.062a2.534,2.534,0,0,0,.959-1.235,5.305,5.305,0,0,0,.332-1.973v-7.783a3.965,3.965,0,0,0-.959-2.914,3.6,3.6,0,0,0-2.656-.922,4.83,4.83,0,0,0-1.586.221,3.046,3.046,0,0,0-1.143.738,3.926,3.926,0,0,0-.922,2.877v7.783a5.753,5.753,0,0,0,.258,1.789,2.556,2.556,0,0,0,.738,1.2,3.291,3.291,0,0,0,1.143.646,4.947,4.947,0,0,0,1.512.2A3.931,3.931,0,0,0,749.163,3812.381Z" transform="translate(-521.586 -3793.128)" fill="#fff"/>
        <path id="Path_22897" data-name="Path 22897" d="M858.084,3796.084q0-1.66,1.992-1.66h1.365a2.8,2.8,0,0,1,1.42.313,2.406,2.406,0,0,1,.9,1.088l7.635,13.685v-15.086h4.611v22.2q0,1.66-1.881,1.66h-1.4a2.848,2.848,0,0,1-1.475-.332,2.74,2.74,0,0,1-.959-1.069l-7.6-13.537v14.938h-4.611Z" transform="translate(-621.101 -3794.203)" fill="#fff"/>
      </g>
    </g>
    <g id="Group_9746" data-name="Group 9746" transform="translate(482 15.504)">
      <g id="Group_1975" data-name="Group 1975" transform="translate(0 0)">
        <path id="Path_2776" data-name="Path 2776" d="M-1279,164.667h0" transform="translate(1344.733 -127.983)" fill="none" stroke="#cf003e" stroke-width="2"/>
        <g id="Group_2465" data-name="Group 2465" transform="translate(0 0)">
          <g id="Group_1959" data-name="Group 1959">
            <g id="Group_1932" data-name="Group 1932">
              <g id="Group_1696" data-name="Group 1696" transform="translate(57.988 15.827)">
                <g id="Group_1695" data-name="Group 1695">
                  <path id="Path_2768" data-name="Path 2768" d="M640.254,291.429h-.561l-.312,1.481h-.222l.313-1.481h-.56l.04-.187H640.3Z" transform="translate(-638.911 -291.242)" fill="#fff"/>
                  <path id="Path_2769" data-name="Path 2769" d="M648.917,291.242h.308l.223,1.434h0l.825-1.434h.308l-.353,1.668h-.212l.341-1.461h-.006l-.851,1.461h-.212l-.217-1.461h0l-.292,1.461h-.213Z" transform="translate(-647.349 -291.242)" fill="#fff"/>
                </g>
              </g>
              <g id="Group_1698" data-name="Group 1698">
                <g id="Group_1697" data-name="Group 1697">
                  <path id="Path_2770" data-name="Path 2770" d="M184.963,168.619a5.728,5.728,0,0,1,4.469-2.909h11.255l-7.544,14.265H178.978Z" transform="translate(-178.978 -165.71)" fill="#fff" fill-rule="evenodd"/>
                  <path id="Path_2771" data-name="Path 2771" d="M383.163,208.154a4.045,4.045,0,0,1,3.155-2.054h7.7l-3.715,7.121a4.043,4.043,0,0,1-3.155,2.055h-7.7Z" transform="translate(-354.174 -201.008)" fill="#fff" fill-rule="evenodd"/>
                  <path id="Path_2772" data-name="Path 2772" d="M496.3,167.031a2.142,2.142,0,0,1,1.671-1.088H502l-2.158,4.028a2.144,2.144,0,0,1-1.672,1.088h-4.029Z" transform="translate(-454.41 -165.914)" fill="#fff" fill-rule="evenodd"/>
                  <path id="Path_2773" data-name="Path 2773" d="M250.1,278.855h11.129l-5.948,11.1H244.156Z" transform="translate(-235.939 -264.59)" fill="#fff" fill-rule="evenodd"/>
                  <path id="Path_2774" data-name="Path 2774" d="M302.166,366.886h7.8l-3.555,6.635a2.975,2.975,0,0,1-2.321,1.511H297.8Z" transform="translate(-282.82 -341.522)" fill="#fff" fill-rule="evenodd"/>
                </g>
                <path id="Path_2775" data-name="Path 2775" d="M371.556,283.832l-2.136,4.017c-.14.264.036.453.3.477a1.364,1.364,0,0,0,.659-.108l-.863,1.617a2.469,2.469,0,0,1-.751.126c-1.267,0-1.857-.854-1.3-1.913l3.591-6.753a1.563,1.563,0,0,1,1.223-.8h1.046l-.844,1.59h1.084l-.926,1.744Zm-10.8.3-.033.075-.884,1.664-1.658,3.115a1.653,1.653,0,0,1-.663.643,1.238,1.238,0,0,1-.571.162h-1.075l2.085-3.922.924-1.738a.354.354,0,0,1,.031-.067c.091-.233-.015-.413-.257-.413a.943.943,0,0,0-.738.481l-.924,1.738-1.657,3.116a1.578,1.578,0,0,1-1.234.805h-1.075l3.01-5.66a3.4,3.4,0,0,1,3.578-2.226h2.838c1.086,0,1.988.634,1.146,2.227l-2.581,4.854a1.578,1.578,0,0,1-1.234.805h-1.076l2.085-3.922.924-1.737c.142-.266.041-.482-.226-.482A.945.945,0,0,0,360.751,284.128Zm22.258-.337-.671,1.263h-1.817l.543-1.021c.14-.264.04-.478-.224-.478a.935.935,0,0,0-.731.478l-1.826,3.435-.162.306c-.14.264-.04.478.224.478s.59-.171.873-.748l.247-.465H379l.732-1.373h2.277l-1.248,2.347-.017.031a4.087,4.087,0,0,1-3.315,1.92c-1.266,0-1.838-.858-1.276-1.917l.307-.578,1.973-3.709a4.088,4.088,0,0,1,3.314-1.918c1.267,0,1.838.859,1.274,1.92Zm-10.189,3.982c-.14.264-.04.478.224.478a.937.937,0,0,0,.731-.478l1.985-3.722c.14-.264.04-.477-.224-.477a.934.934,0,0,0-.731.477Zm4.886-3.963-2.24,4.2-.016.031a4.091,4.091,0,0,1-3.316,1.92c-1.266,0-1.837-.858-1.275-1.917l2.276-4.269a4.091,4.091,0,0,1,3.315-1.918c1.268,0,1.838.859,1.274,1.92Zm-13.48,3.963c-.14.264-.04.478.223.478a.936.936,0,0,0,.732-.478l1.986-3.722c.14-.264.04-.477-.224-.477a.936.936,0,0,0-.732.477Zm4.806-3.963-2.24,4.2-.016.031a4.089,4.089,0,0,1-3.316,1.92c-1.267,0-1.837-.858-1.276-1.917l2.276-4.269a4.091,4.091,0,0,1,3.315-1.918c1.268,0,1.838.859,1.274,1.92Zm16.382.232-.088.158-.8,1.5h.316a1.25,1.25,0,0,0,.979-.639l.545-1.022c.14-.264.04-.478-.223-.478A.934.934,0,0,0,385.415,284.042Zm-1.778,3.337-.859,1.616a1.562,1.562,0,0,1-1.223.8H380.49l2.292-4.312.692-1.3a3.625,3.625,0,0,1,3.586-2.336c1.583,0,1.785,1.048,1.1,2.342l-.05.091-.6,1.13-.038.075a4.157,4.157,0,0,1-3.375,1.941A2.465,2.465,0,0,1,383.637,287.378Z" transform="translate(-331.081 -266.026)" fill="#fff"/>
              </g>
            </g>
          </g>
        </g>
      </g>
    </g>
  </g>
</svg>
