<svg width="547" height="81" viewBox="0 0 547 81" fill="none" xmlns="http://www.w3.org/2000/svg">
<g clip-path="url(#clip0_432_859)">
<path d="M341.13 6.58018H300.15L289.38 74.4902H335.93C373.08 74.4902 382.94 57.3302 385.13 44.1902C385.59 41.3602 385.86 38.5302 385.86 35.7002C385.86 20.8202 376.27 6.58018 341.13 6.58018ZM363.49 41.8102C362.03 48.8402 357.38 58.1502 334.19 58.1502H297.21L313.71 50.9102L318.22 22.6402H339.85C360.2 22.6402 363.95 30.7602 363.95 37.7002C363.95 38.8902 363.77 40.2602 363.49 41.8102ZM447.54 6.58018H420.8L377.9 74.4902H399.35L407.02 62.0802H447.27V62.0902H461.81L449.29 67.5902L451.83 74.4902H473.37L447.54 6.58018ZM416.51 46.7402L416.53 46.7102H403.1L421.55 38.6202L432.31 21.2702L441.62 46.7402H416.51ZM495.95 54.9602L506.7 46.5702L546.07 6.58018H521.88L496.88 31.5902L480.08 6.58018H455.44L484.37 48.2002L480.17 74.4902H500.89L504.01 54.9602H495.95ZM188.39 57.4702L188.43 57.2102H176.48L189.33 51.5702L196.51 6.44017H175.8L165.03 74.3502H216.56L219.2 57.4702H188.39ZM138.64 6.44017H111.9L68.9999 74.3502H90.4499L98.1199 61.9402H138.37L138.38 61.9802H153.77L140.52 67.8002L142.93 74.3502H156.23L158.65 59.0702L138.64 6.44017ZM113 46.6002H94.3399L112.57 38.6002L123.4 21.1302L132.71 46.6002H113ZM248.07 57.4702L248.11 57.2102H236.15L249 51.5702L256.19 6.44017H235.47L224.7 74.3502H271.36L274.01 57.4702H248.07ZM56.9599 9.49018C54.4699 11.2802 49.6999 13.7202 43.5699 12.2002C32.9399 9.59018 29.8999 0.430176 29.8999 0.430176C29.8999 0.430176 26.8599 9.59018 16.2299 12.2002C10.0899 13.7102 5.32992 11.2702 2.83992 9.49018H0.919922V58.8602C0.919922 60.1102 1.22992 62.5702 3.24992 65.0302C5.74992 68.0702 9.98992 70.0402 15.8599 70.8902C20.5299 71.5702 23.9799 73.0302 26.4199 75.3802C28.2099 77.1002 29.9099 80.0902 29.9099 80.0902C29.9099 80.0902 31.6699 77.0502 33.3999 75.3802C35.8399 73.0402 39.2899 71.5702 43.9599 70.8902C49.8199 70.0402 54.0699 68.0702 56.5699 65.0302C58.5899 62.5702 58.8999 60.1102 58.8999 58.8602V9.49018H56.9599ZM57.1399 58.8602C57.1399 60.4702 56.4599 67.3202 43.6899 69.1702C38.6499 69.9002 34.8799 71.5202 32.1699 74.1302C31.1999 75.0702 30.4599 76.0202 29.8899 76.8902C29.2369 75.8868 28.472 74.9608 27.6099 74.1302C24.8999 71.5302 21.1399 69.9002 16.0899 69.1702C3.31992 67.3202 2.63992 60.4802 2.63992 58.8602V11.4202C2.63992 11.4202 8.44992 15.9402 16.6399 13.9002C26.1799 11.5102 29.8899 4.37018 29.8899 4.37018C29.8899 4.37018 33.5999 11.5202 43.1399 13.9002C51.3299 15.9402 57.1399 11.4202 57.1399 11.4202V58.8602Z" fill="white"/>
<path d="M53.9397 58.8603V34.0103H5.84968V58.8603C5.84968 59.1203 5.51968 64.3003 16.5597 66.0103C26.1897 67.5003 29.8997 72.0603 29.8997 72.0603C29.8997 72.0603 33.5997 67.4903 43.2397 66.0003C54.2697 64.3003 53.9397 59.1203 53.9397 58.8603ZM23.9597 39.5203L22.5497 40.3503V64.4603L18.9397 63.3803L13.7197 47.9803V58.1303L15.3797 59.4003V62.5303L8.12968 60.6903V58.0203L9.78968 57.3703V40.3603L8.08968 39.5203V36.4603H13.5697L18.6897 52.1703V40.3503L17.2097 39.5203V36.4603H23.9597V39.5203ZM37.8597 42.6903H35.1197L34.2897 40.1303H31.1197V47.3403H33.4997L34.4397 45.9703H36.3497V52.3903H34.4397L33.5397 51.0903H31.1197V62.9703L32.5697 64.7003V67.7603L25.3897 65.0803V62.4803L26.9697 61.8303V40.3503L25.3897 39.5503V36.4503H37.8497V42.6903H37.8597ZM51.7097 60.6803L39.0397 64.0603V61.0003L40.8197 59.5403V40.3503L39.2997 39.5503V36.4503H46.4897V39.5503L45.0797 40.3503V58.3503L48.1697 57.5203L48.7597 52.8003H51.7097V60.6803Z" fill="white"/>
<path d="M7.09969 28.9203L4.92969 27.2803H7.58969L8.46969 24.7603L9.34969 27.2803H11.9997L9.82969 28.9203L10.6297 31.4803L8.46969 29.9603L6.30969 31.4803L7.09969 28.9203ZM16.5397 28.9203L14.3697 27.2803H17.0297L17.9097 24.7603L18.7897 27.2803H21.4497L19.2797 28.9203L20.0797 31.4803L17.9197 29.9603L15.7597 31.4803L16.5397 28.9203ZM7.09969 20.4103L4.92969 18.7703H7.58969L8.46969 16.2503L9.34969 18.7703H11.9997L9.82969 20.4103L10.6297 22.9703L8.46969 21.4503L6.30969 22.9703L7.09969 20.4103ZM16.5397 20.4103L14.3697 18.7703H17.0297L17.9097 16.2503L18.7897 18.7703H21.4497L19.2797 20.4103L20.0797 22.9703L17.9197 21.4503L15.7597 22.9703L16.5397 20.4103ZM53.4897 31.4803L51.3297 29.9603L49.1697 31.4803L49.9697 28.9203L47.7997 27.2803H50.4597L51.3397 24.7603L52.2197 27.2803H54.8797L52.7097 28.9203L53.4897 31.4803ZM44.0597 31.4803L41.8997 29.9603L39.7397 31.4803L40.5397 28.9203L38.3697 27.2803H41.0297L41.9097 24.7603L42.7897 27.2803H45.4497L43.2797 28.9203L44.0597 31.4803ZM53.4897 22.9603L51.3297 21.4403L49.1697 22.9603L49.9697 20.4003L47.7997 18.7603H50.4597L51.3397 16.2403L52.2197 18.7603H54.8797L52.7097 20.4003L53.4897 22.9603ZM44.0597 22.9603L41.8997 21.4403L39.7397 22.9603L40.5397 20.4003L38.3697 18.7603H41.0297L41.9097 16.2403L42.7897 18.7603H45.4497L43.2797 20.4003L44.0597 22.9603ZM36.3097 14.0003C36.2397 13.8303 36.1097 13.5603 35.8897 13.5803C35.8897 13.5803 34.7597 14.1703 33.1897 15.7103C33.5397 15.9103 33.9397 16.1903 34.1697 16.3803C33.9297 16.5903 33.6897 16.8203 33.4597 17.0303C32.6115 16.3293 31.6172 15.827 30.5497 15.5603C30.8197 15.3603 31.1097 15.1703 31.3997 14.9803C31.8397 15.0903 32.2697 15.2703 32.2697 15.2703C34.0497 13.9203 35.5797 13.3303 35.5797 13.3303C35.5797 13.3303 35.3997 13.2403 34.9297 13.2503C27.9497 13.3403 21.5197 18.5503 22.7297 27.4703C22.8597 28.4203 23.2297 30.1403 23.6897 30.8903C23.8497 29.4103 24.3997 26.1203 26.0597 22.6003C25.4797 22.3903 25.0097 22.3103 25.0097 22.3103C25.1797 21.9503 25.4097 21.5003 25.4097 21.5003C26.6297 21.7303 27.7197 22.2403 28.6497 22.9903C28.4197 23.3503 28.2697 23.5903 28.1697 23.7803C27.8397 23.5203 27.5097 23.3003 27.1397 23.1003C25.2797 26.3503 24.4197 29.4203 24.0697 31.0303C24.0897 31.1303 24.2897 31.1803 24.4497 31.1603C32.0997 30.1703 35.6797 26.2703 36.7697 22.0403C37.4997 19.2603 37.2697 16.3603 36.3097 14.0003ZM29.3097 22.0003C28.3633 21.2112 27.2307 20.6776 26.0197 20.4503C26.0197 20.4503 26.3697 19.8803 26.5697 19.5803C27.9597 19.8603 29.0897 20.5103 29.8797 21.1803C29.6797 21.4703 29.4797 21.7403 29.3097 22.0003ZM30.5697 20.2403C29.6148 19.4348 28.4734 18.8813 27.2497 18.6303C27.4397 18.3803 27.6697 18.1103 27.8897 17.8603C28.8597 18.0303 30.1097 18.5403 31.1897 19.4403C30.9697 19.7103 30.7597 19.9803 30.5697 20.2403ZM31.9697 18.5503C30.9997 17.7503 29.9197 17.2403 28.7597 16.9903C29.0397 16.7303 29.3297 16.5003 29.5797 16.2903C31.0197 16.6403 31.9897 17.2803 32.6497 17.8303C32.4097 18.0803 32.1797 18.3103 31.9697 18.5503Z" fill="white"/>
</g>
<defs>
<clipPath id="clip0_432_859">
<rect width="547" height="81" fill="white"/>
</clipPath>
</defs>
</svg>
