<svg width="449" height="110" viewBox="0 0 449 110" fill="none" xmlns="http://www.w3.org/2000/svg">
<g clip-path="url(#clip0_432_841)">
<path d="M443.721 37.0302L448.511 9.89023C446.501 5.25024 440.381 -0.00976562 429.421 -0.00976562C418.461 -0.00976562 410.571 5.25024 406.641 10.2702L401.941 36.9602C401.671 38.2102 401.011 39.0702 399.921 39.6602C398.181 40.5902 396.401 41.4502 394.701 42.4102C393.041 43.3502 393.031 44.3502 394.651 45.3902C396.151 46.3502 397.751 47.1602 399.211 48.1702C399.881 48.6302 400.541 49.3502 400.821 50.0902C402.001 53.1702 403.881 55.7202 406.601 57.4902C407.181 57.8702 407.741 58.2302 408.321 58.5902C409.861 59.5902 411.691 60.6002 413.891 61.6602C419.831 64.3802 421.891 66.2202 422.041 68.9302V69.0802L418.381 89.5902C417.521 91.2702 415.671 93.0702 413.041 93.0702C410.411 93.0702 409.021 91.1302 408.721 89.2202L408.691 89.0102L411.861 71.0502H395.971L390.851 100.05C392.931 104.8 399.601 109.79 409.661 109.79C418.621 109.79 427.221 106 432.721 99.6302L439.701 60.0502C438.881 56.7302 437.401 54.2002 434.341 51.5202C432.811 50.2002 431.011 49.1502 428.961 48.3702C425.021 46.8702 420.891 45.8902 416.891 44.5502C413.361 43.3702 413.191 42.5502 415.871 40.1002C417.061 39.0102 417.761 37.8002 418.021 36.1702C418.061 35.9002 418.111 35.6402 418.161 35.3702H418.171L420.891 20.1802C421.711 18.5702 423.561 16.7002 426.071 16.7002C428.421 16.7002 430.181 18.2102 430.551 20.5502L430.581 20.7602L427.711 37.0202H443.761V37.0402L443.721 37.0302Z" fill="white"/>
<path d="M398.64 11.59C398.16 8.81 392.64 0 378.76 0C364.88 0 355.7 9.16 354.28 12L349.94 36.61C349.64 38.12 348.92 39.15 347.55 39.85C345.84 40.72 344.12 41.6 342.47 42.56C341.18 43.31 341.14 44.22 342.31 45.13C343.07 45.71 343.93 46.18 344.75 46.67C347.79 48.51 347.81 48.66 347.2 52.08C347.06 52.87 346.93 53.66 346.79 54.45L339.07 98.19C339.51 100.88 345.15 109.78 358.94 109.78C372.73 109.78 381.96 100.62 383.42 97.77L390.96 55C391.19 53.68 391.42 52.37 391.66 51.05C392.03 48.92 391.74 48.34 389.85 47.19C388.82 46.56 387.75 46 386.76 45.33C385.23 44.3 385.25 43.34 386.85 42.42C388.47 41.49 390.16 40.66 391.82 39.81C393.24 39.08 393.97 38.01 394.24 36.36C394.38 35.52 394.54 34.69 394.68 33.86L398.61 11.58L398.64 11.59ZM367.56 89.54C366.52 91.85 364.72 93.07 362.35 93.07C359.84 93.07 358.26 91.64 358.02 89.14L358 88.97L358.03 88.8L364 55.02C364.27 53.5 364.54 51.98 364.81 50.46C365 49.39 364.75 48.65 363.95 48.1C362.65 47.2 361.3 46.37 359.97 45.52C358.1 44.33 358.08 43.38 359.98 42.32C361.61 41.4 363.3 40.58 364.97 39.74C366.32 39.06 367.05 38.04 367.3 36.51C367.45 35.62 367.6 34.74 367.75 33.85L370.15 20.26C371.19 17.95 372.99 16.72 375.36 16.72C377.87 16.72 379.45 18.16 379.69 20.65L379.71 20.82L379.68 20.99L377.41 33.84C377.19 35.02 376.96 36.2 376.73 37.37C376.55 38.24 375.59 39.13 374.77 39.65C373.12 40.71 371.29 41.48 369.58 42.44C367.97 43.36 367.95 44.29 369.49 45.32C370.45 45.96 371.47 46.51 372.46 47.11C374.55 48.36 374.77 48.81 374.34 51.2C374.11 52.47 373.89 53.74 373.67 55.01L367.57 89.54H367.56Z" fill="white"/>
<path d="M349.37 1.86035H313.93L311.12 17.8004H328.8L328.13 21.4204L322.81 33.8404C322.48 34.6404 322.1 35.4304 321.78 36.2404C321.06 38.0404 319.93 39.2004 318.22 39.9604C316.29 40.8204 314.35 41.6704 312.49 42.6604C310.94 43.4804 310.91 44.4204 312.28 45.5004C313.03 46.1004 313.85 46.6103 314.62 47.1903C316.23 48.4103 316.36 48.9004 315.58 50.7204C315.39 51.1604 315.21 51.6003 315.02 52.0303L297.89 92.0203L295.09 107.93H330.68L333.49 91.9903H315.66L316.36 88.2104L330.6 55.0103C331.26 53.4803 331.95 51.9603 332.6 50.4403C333.08 49.3303 332.94 48.4903 332.1 47.7603C331.26 47.0403 330.35 46.4104 329.47 45.7504C327.65 44.3904 327.71 43.4803 329.77 42.4403C331.7 41.4703 333.68 40.6004 335.63 39.6604C336.98 39.0204 337.98 38.0704 338.53 36.6104C338.67 36.2504 338.81 35.8904 338.97 35.5404L346.6 17.7704L349.4 1.86035H349.39H349.37Z" fill="white"/>
<path d="M298.57 1.86035H269.73L261.16 33.3604L261.12 33.5103C260.84 34.5603 260.57 35.6203 260.28 36.6703C259.9 38.1103 259.13 39.0503 257.86 39.6903C256.06 40.5903 254.24 41.4803 252.47 42.4403C250.71 43.4003 250.68 44.3304 252.32 45.4904C253.46 46.2904 254.64 47.0304 255.77 47.8604C256.62 48.4904 256.86 49.2804 256.55 50.3804C256.13 51.8804 255.72 53.3703 255.31 54.8703L244.91 93.0704L242.29 107.92H258.25L264.32 82.3304H274.97L271.7 107.92H288.44L291.16 92.5203L294.25 54.8904C294.36 53.6704 294.49 52.4504 294.6 51.2304C294.79 49.2004 294.02 48.1704 292.54 47.2704C291.35 46.5504 290.09 45.9304 288.95 45.1304C287.57 44.1604 287.6 43.2904 289.06 42.4004C290.61 41.4504 292.25 40.6404 293.84 39.7204C294.97 39.0604 295.65 38.1704 295.77 36.7404C295.85 35.6204 295.95 34.4903 296.03 33.3703L298.61 1.87035H298.6L298.57 1.86035ZM268.07 66.2403L270.75 54.9004V54.8703C271.06 53.5603 271.38 52.2503 271.7 50.9403C272.16 49.0503 271.94 48.4604 270.29 47.3304C269.33 46.6804 268.32 46.1304 267.37 45.4604C265.7 44.2904 265.73 43.3704 267.49 42.3904C269.17 41.4604 270.9 40.6204 272.62 39.7404C273.98 39.0404 274.79 38.0304 275.13 36.4604C275.35 35.4204 275.6 34.3903 275.84 33.3503L278.42 22.4404H282.55L281.16 33.3503C280.98 34.6303 280.8 35.9203 280.59 37.1903C280.44 38.1103 279.53 39.0904 278.7 39.6604C277.17 40.7204 275.42 41.4603 273.81 42.4203C272.29 43.3203 272.26 44.1904 273.71 45.2204C275.04 46.1604 276.48 46.9604 277.85 47.8404C278.89 48.5104 279.15 49.4403 278.97 50.6903C278.78 52.0403 278.6 53.3904 278.42 54.7404L276.96 66.2003H268.05L268.07 66.2204V66.2403Z" fill="white"/>
<path d="M223.19 91.9903L229.73 54.8903C229.98 53.4503 230.28 52.0103 230.54 50.5703C230.74 49.4703 230.54 48.6503 229.7 48.0403C228.37 47.1003 226.96 46.2703 225.61 45.3403C224.11 44.3103 224.12 43.3403 225.7 42.4303C227.32 41.4903 229 40.6503 230.65 39.7803C232.02 39.0703 232.78 38.0203 233.04 36.4303C233.21 35.4003 233.36 34.3703 233.53 33.3403L239.09 1.84033H221.8L216.24 33.3803C216.07 34.4503 215.9 35.5303 215.71 36.6003C215.46 38.0903 214.75 39.0503 213.48 39.7303C211.86 40.5803 210.22 41.3903 208.64 42.3003C206.75 43.3903 206.78 44.3103 208.65 45.5203C209.94 46.3503 211.32 47.1003 212.45 48.1103C212.98 48.5803 213.35 49.6503 213.22 50.3503C212.97 51.7903 212.72 53.2203 212.47 54.6503L203.08 107.9H236.35L239.16 91.9603H223.19V91.9903Z" fill="white"/>
<path d="M211.26 11.59C210.78 8.81 205.27 0 191.39 0C177.51 0 168.33 9.16 166.91 12L163.15 33.36C162.96 34.45 162.77 35.54 162.59 36.63C162.34 38.1 161.64 39.09 160.35 39.76C158.64 40.64 156.94 41.52 155.27 42.48C153.75 43.36 153.72 44.29 155.15 45.29C156.13 45.97 157.2 46.56 158.22 47.18C159.24 47.8 160.03 48.51 160.2 49.54C160.26 49.88 160.01 51.14 160.01 51.14L159.35 54.9L151.71 98.21C152.15 100.9 157.79 109.8 171.58 109.8C185.37 109.8 194.6 100.64 196.06 97.79L203.62 54.9C203.88 53.45 204.13 52.01 204.39 50.56C204.59 49.45 204.39 48.66 203.53 48.06C202.28 47.18 200.98 46.35 199.69 45.51C197.91 44.35 197.88 43.41 199.69 42.37C201.27 41.46 202.9 40.63 204.52 39.8C205.91 39.09 206.63 38.01 206.89 36.43C207.06 35.41 207.24 34.4 207.41 33.38L211.25 11.61L211.26 11.59ZM174.98 93.07C172.47 93.07 170.89 91.64 170.65 89.14L170.63 88.97L170.66 88.8L176.74 54.42C176.97 53.13 177.2 51.85 177.44 50.56C177.76 48.81 176.77 48.08 175.7 47.32C174.65 46.56 173.46 46 172.39 45.26C171.01 44.29 171.03 43.38 172.47 42.52C174.12 41.54 175.84 40.68 177.55 39.8C178.99 39.05 179.71 37.92 179.97 36.3C180.13 35.32 180.3 34.34 180.47 33.37L182.79 20.26C183.83 17.95 185.63 16.72 188 16.72C190.51 16.72 192.09 18.16 192.33 20.65L192.35 20.82L192.32 20.99L190.13 33.36C189.88 34.73 189.59 36.09 189.31 37.45C189.15 38.28 188.22 39.12 187.43 39.63C185.82 40.66 184.04 41.43 182.37 42.38C180.65 43.36 180.66 44.35 182.36 45.44C183.37 46.09 184.43 46.67 185.44 47.32C186.73 48.16 187.37 49.13 187.04 50.91C186.8 52.23 186.56 53.56 186.32 54.88L180.19 89.52C179.15 91.83 177.35 93.05 174.98 93.05V93.07Z" fill="white"/>
<path d="M158.75 9.46C156.57 5.02 150.41 0 139.9 0C125.76 0 117.56 8.53 115.41 12.06L111.65 33.38C111.46 34.47 111.27 35.55 111.09 36.64C110.85 38.05 110.2 39.04 108.96 39.69C107.34 40.54 105.71 41.36 104.13 42.26C102.08 43.44 102.11 44.33 104.16 45.62C105.38 46.39 106.6 47.16 107.78 47.99C108.64 48.6 108.84 49.44 108.64 50.52C107.82 55.12 107.01 59.72 106.2 64.32L100.24 98.15C101.18 102.1 107.09 109.79 120.1 109.79C133.11 109.79 140.54 102.57 142.8 99.95L151.23 52.14C151.34 51.53 151.44 50.92 151.55 50.31C151.77 49.07 151.34 48.72 150.18 48.72H131.18L128.59 63.42H133.34L128.78 89.26C128.21 91.18 126.33 93.09 123.48 93.09C121.75 93.09 120.73 92.4 120.18 91.82C119.47 91.07 119.09 90.03 119.15 88.98L123.5 64.34C123.52 64.25 123.53 64.16 123.55 64.07V64.04C124.35 59.47 125.13 54.91 125.92 50.33C126.03 49.7 125.75 48.72 125.29 48.33C124.01 47.26 122.55 46.4 121.15 45.47C119.48 44.35 119.45 43.4 121.18 42.4C122.8 41.47 124.48 40.63 126.14 39.76C127.47 39.06 128.18 38.01 128.43 36.49C128.6 35.46 128.78 34.42 128.96 33.38L131.27 20.29C132.25 18 134.1 16.73 136.49 16.73C139 16.73 140.58 18.17 140.82 20.66L140.84 20.83L138.65 33.27C138.58 33.63 138.49 33.99 138.43 34.35C138.08 36.29 138.26 38.48 136.21 39.84C141.03 39.84 145.85 39.85 150.67 39.84C152.23 39.84 153.62 38.53 153.91 36.9C154.09 35.92 154.25 34.93 154.42 33.94L158.73 9.48V9.46H158.75Z" fill="white"/>
<path fill-rule="evenodd" clip-rule="evenodd" d="M21.6203 59.34L20.9403 60.72L20.4403 62.11L20.1303 63.48L20.0303 64.82L20.1103 66.08L20.3503 67.32L20.7403 68.53L21.2903 69.74L21.9903 70.93L22.8403 72.12L29.5103 80.65L60.6103 64.82H40.5803L85.0303 1.47998H62.1003L22.4903 57.96L21.6203 59.34Z" fill="white"/>
<path fill-rule="evenodd" clip-rule="evenodd" d="M0.3 41.85L0.68 42.99L1.22 44.13L1.93 45.29L2.81 46.52L8.26 53.47L35.31 39.66H17.92L44.71 1.47998H23.89L2.37 32.62L1.55 33.91L0.89 35.23L0.41 36.59L0.1 37.98L0 39.4L0.08 40.66L0.3 41.85Z" fill="white"/>
<path fill-rule="evenodd" clip-rule="evenodd" d="M4.25 89.0498H0V104.59L0.18 105.77L0.79 106.86L2.46 108.94H11.75V104.96H4.25V89.0498Z" fill="white"/>
<path fill-rule="evenodd" clip-rule="evenodd" d="M28.7303 102.89L28.5203 102.12L26.0103 93.0298L25.2803 90.3898L25.0303 89.7998L24.6603 89.3798L24.1603 89.1298L23.5403 89.0498H18.6503L14.0403 105.7L13.9203 106.18L13.8503 106.64L13.8203 107.13V107.72V108.94H17.6003L18.3403 106.02L24.4503 102.9L25.9603 108.95H29.7403V107.73L29.7003 106.65L28.7303 102.9V102.89ZM19.3103 102.12L21.5503 93.0298H22.0103L24.2603 102.12H19.3203H19.3103Z" fill="white"/>
<path fill-rule="evenodd" clip-rule="evenodd" d="M35.8896 89.0498H31.6396V104.59L31.8296 105.77L32.4396 106.86L34.1096 108.94H43.3997V104.96H35.8896V89.0498Z" fill="white"/>
<path d="M50.0596 89.0498H45.8096V108.94H50.0596V89.0498Z" fill="white"/>
<path fill-rule="evenodd" clip-rule="evenodd" d="M67.8902 94.7401L67.7802 93.4001L67.4502 92.2201L66.9202 91.2101L66.1902 90.3701L65.2602 89.7101L64.1402 89.2301L62.8302 88.9301L61.3602 88.8301H59.4902L57.9902 88.9401L56.6802 89.2601L55.5602 89.7801L54.6302 90.5101L53.9002 91.4401L53.3802 92.5601L53.0602 93.8701L52.9502 95.3601V102.62L53.0602 104.11L53.3802 105.42L53.9002 106.54L54.6302 107.47L55.5602 108.2L56.6802 108.72L57.9902 109.04L59.4902 109.15H61.3602L62.8502 109.04L64.1602 108.72L65.2802 108.2L66.2102 107.47L66.9402 106.54L67.4702 105.42L67.7802 104.11L67.8902 102.62V101.91L67.7102 100.7L67.1002 99.6401L65.4202 97.5701H60.6702V101.54H63.6302V104.03L63.5502 104.53L63.3402 104.88L62.9802 105.1L62.4902 105.17H58.3502L57.8602 105.1L57.5102 104.88L57.2902 104.53L57.2202 104.03V93.9401L57.2902 93.4501L57.5102 93.1001L57.8602 92.8801L58.3502 92.8101H62.4902L62.9802 92.8801L63.3402 93.1001L63.5502 93.4501L63.6302 93.9401V94.7401H67.8902Z" fill="white"/>
<path fill-rule="evenodd" clip-rule="evenodd" d="M84.0104 102.89L83.8004 102.12L81.3004 93.0298L80.5704 90.3898L80.3204 89.7998L79.9504 89.3798L79.4604 89.1298L78.8404 89.0498H73.9604L69.3704 105.7L69.2504 106.18L69.1804 106.64L69.1504 107.13V107.72V108.94H72.9204L73.6604 106.02L79.7504 102.9L81.2504 108.95H85.0204V107.73L84.9804 106.65L84.0104 102.9V102.89ZM74.6104 102.12L76.8504 93.0298H77.3004L79.5404 102.12H74.6104Z" fill="white"/>
</g>
<defs>
<clipPath id="clip0_432_841">
<rect width="448.51" height="109.8" fill="white"/>
</clipPath>
</defs>
</svg>
